<svg width="274" height="70" viewBox="0 0 274 70" fill="none" xmlns="http://www.w3.org/2000/svg">
<path d="M18.54 68H32.22L51.03 23H36.63L30.6 38.75C28.26 44.6 26.37 50.27 25.83 53.06C25.47 50.99 23.67 45.32 21.42 38.75L15.93 23H0.900024L18.54 68Z" fill="url(#paint0_linear)"/>
<path d="M91.2734 69.08C107.743 69.08 120.343 59.45 122.683 44.42H107.563C105.403 50.63 99.0134 54.77 91.5434 54.77C81.1034 54.77 74.1734 47.57 74.1734 34.7C74.1734 22.46 80.3834 14.36 91.5434 14.36C98.3834 14.36 104.053 18.05 106.033 24.71H121.423C119.353 9.86001 107.563 0.230011 91.9034 0.230011C71.9234 0.230011 58.7834 14.09 58.7834 34.79C58.7834 56.66 72.0134 69.08 91.2734 69.08Z" fill="url(#paint1_linear)"/>
<path d="M146.157 69.17C152.997 69.17 157.947 66.11 159.387 62.06L160.287 68H172.527V41.72C172.527 29.66 165.957 21.56 152.097 21.56C139.947 21.56 131.577 28.31 131.757 38.39H143.277C143.187 34.52 146.157 32.09 151.377 32.09C156.147 32.09 159.027 34.25 159.027 38.84V39.56L147.327 40.55C137.337 41.36 130.676 45.86 130.676 54.77C130.676 63.5 136.527 69.17 146.157 69.17ZM151.017 58.91C146.787 58.91 144.807 57.2 144.807 54.14C144.807 51.35 146.607 50 152.097 49.46L159.117 48.74V51.17C159.117 58.37 153.357 58.91 151.017 58.91Z" fill="url(#paint2_linear)"/>
<path d="M218.034 23C211.644 21.47 203.274 22.46 200.574 27.95L199.854 23.09H187.074V68H201.024V48.47C201.024 39.56 205.704 35.06 213.624 35.06H218.034V23Z" fill="url(#paint3_linear)"/>
<path d="M245.59 69.17C252.07 69.17 258.01 66.38 260.44 62.24L261.16 68H273.85V0.140015H260.17V27.14C257.56 23.81 252.07 21.56 246.49 21.56C232.81 21.56 224.26 31.46 224.26 45.77C224.26 59.99 232.63 69.17 245.59 69.17ZM248.92 56.48C242.35 56.48 238.21 51.89 238.21 45.23C238.21 38.57 242.35 33.98 248.92 33.98C255.4 33.98 259.9 38.48 259.9 45.23C259.9 51.98 255.4 56.48 248.92 56.48Z" fill="url(#paint4_linear)"/>
<defs>
<linearGradient id="paint0_linear" x1="3.85038e-07" y1="21.6885" x2="318.622" y2="59.5055" gradientUnits="userSpaceOnUse">
<stop offset="0.132229" stop-color="white"/>
<stop offset="1" stop-color="white" stop-opacity="0.22"/>
</linearGradient>
<linearGradient id="paint1_linear" x1="3.85038e-07" y1="21.6885" x2="318.622" y2="59.5055" gradientUnits="userSpaceOnUse">
<stop offset="0.132229" stop-color="white"/>
<stop offset="1" stop-color="white" stop-opacity="0.22"/>
</linearGradient>
<linearGradient id="paint2_linear" x1="3.85038e-07" y1="21.6885" x2="318.622" y2="59.5055" gradientUnits="userSpaceOnUse">
<stop offset="0.132229" stop-color="white"/>
<stop offset="1" stop-color="white" stop-opacity="0.22"/>
</linearGradient>
<linearGradient id="paint3_linear" x1="3.85038e-07" y1="21.6885" x2="318.622" y2="59.5055" gradientUnits="userSpaceOnUse">
<stop offset="0.132229" stop-color="white"/>
<stop offset="1" stop-color="white" stop-opacity="0.22"/>
</linearGradient>
<linearGradient id="paint4_linear" x1="3.85038e-07" y1="21.6885" x2="318.622" y2="59.5055" gradientUnits="userSpaceOnUse">
<stop offset="0.132229" stop-color="white"/>
<stop offset="1" stop-color="white" stop-opacity="0.22"/>
</linearGradient>
</defs>
</svg>
