<?xml version="1.0" encoding="utf-8"?>
<!-- Generator: Adobe Illustrator 27.9.0, SVG Export Plug-In . SVG Version: 6.00 Build 0)  -->
<svg version="1.1" id="Layer_1" xmlns="http://www.w3.org/2000/svg" xmlns:xlink="http://www.w3.org/1999/xlink" x="0px" y="0px"
	 viewBox="0 0 40 40" style="enable-background:new 0 0 40 40;" xml:space="preserve">
<style type="text/css">
	.st0{fill-rule:evenodd;clip-rule:evenodd;fill:#FFFFFF;}
</style>
<path class="st0" d="M8.2,21.8c2.9-1.2,6.1-0.3,8.9,2.5l0.1,0.1c2.4,3.1,3.1,6,2,8.4c-2.7,6.1-15.4,7-16.9,7.1L0,40l1.3-2
	c0,0,2.2-3.4,2.2-9.1C3.5,25.9,5.4,22.9,8.2,21.8z M36,0c1.1,0,2.1,0.3,2.8,1.1c0.8,0.9,1.2,1.9,1.2,3c-0.2,5.6-10.3,15.8-18.1,22.8
	c-0.5-1.4-1.3-2.9-2.6-4.5l-0.2-0.2c-1.7-1.7-3.5-2.9-5.5-3.4C19.9,11.4,30.4,0.2,36,0z"/>
</svg>
