<?xml version="1.0" encoding="utf-8"?>
<!-- Generator: Adobe Illustrator 27.9.0, SVG Export Plug-In . SVG Version: 6.00 Build 0)  -->
<svg version="1.1" id="Layer_1" xmlns="http://www.w3.org/2000/svg" xmlns:xlink="http://www.w3.org/1999/xlink" x="0px" y="0px"
	 viewBox="0 0 40 40" style="enable-background:new 0 0 40 40;" xml:space="preserve">
<style type="text/css">
	.st0{fill-rule:evenodd;clip-rule:evenodd;fill:#FFFFFF;}
</style>
<g id="Page-1">
	<g id="Dribbble-Light-Preview" transform="translate(-260.000000, -7559.000000)">
		<g id="icons" transform="translate(56.000000, 160.000000)">
			<path id="wordpress-_x5B__x23_139_x5D_" class="st0" d="M241.5,7409.4c0.1,0.6,0.1,1.3,0.1,2.1c0,3.5-0.3,3.7-7.6,24.8
				c5.9-3.5,9.9-9.9,9.9-17.3C244,7415.5,243.1,7412.3,241.5,7409.4L241.5,7409.4z M224.4,7420.7l-6,17.4c4,1.2,8.3,1.1,12.3-0.3
				c-0.1-0.1-0.1-0.2-0.1-0.3L224.4,7420.7z M237.5,7418c0-2.5-0.9-4.2-1.6-5.5c-1-1.6-2-3-2-4.7c0-1.8,1.4-3.5,3.4-3.5
				c0.1,0,0.2,0,0.3,0c-3.6-3.3-8.3-5.2-13.5-5.2c-7,0-13.1,3.6-16.7,9c1.3,0,3,0.1,6.6-0.2c1.1-0.1,1.2,1.5,0.1,1.6
				c0,0-1.1,0.1-2.3,0.2l7.3,21.7l4.4-13.1l-3.1-8.5c-1.1-0.1-2.1-0.2-2.1-0.2c-1.1-0.1-1-1.7,0.1-1.6c4.1,0.3,6.2,0.3,10.6,0
				c1.1-0.1,1.2,1.5,0.1,1.6c0,0-1.1,0.1-2.3,0.2l7.2,21.5C236.8,7421.6,237.5,7420,237.5,7418L237.5,7418z M204,7419
				c0,7.9,4.6,14.8,11.3,18l-9.5-26.1C204.6,7413.3,204,7416.1,204,7419L204,7419z"/>
		</g>
	</g>
</g>
</svg>
